<svg width="120" height="120" viewBox="0 0 120 120" fill="none" xmlns="http://www.w3.org/2000/svg">
<g clip-path="url(#clip0_4627_5032)">
<path opacity="0.912" fill-rule="evenodd" clip-rule="evenodd" d="M56.836 5.03968C57.9989 4.99787 58.8973 5.46662 59.5313 6.44593C61.2626 4.43387 62.6297 4.62919 63.6328 7.03187C63.3996 7.88834 62.9309 8.59147 62.2266 9.14124C63.7203 10.3065 63.8763 11.5565 62.6953 12.8912C61.3653 13.4602 60.3106 13.1086 59.5313 11.8366C58.474 13.3127 57.2238 13.5471 55.7813 12.5397C55.141 11.1196 55.4925 9.9868 56.836 9.14124C56.0663 8.61169 55.5975 7.90857 55.4297 7.03187C55.4182 5.99394 55.887 5.32988 56.836 5.03968Z" fill="#C0C1C2"/>
<path opacity="0.948" fill-rule="evenodd" clip-rule="evenodd" d="M119.883 42.0703C119.883 65.4298 119.883 88.789 119.883 112.148C119.236 113.535 118.142 114.355 116.602 114.609C107.852 114.766 99.1015 114.766 90.3516 114.609C89.1239 113.842 88.8506 112.787 89.5312 111.445C89.707 111.299 89.9025 111.181 90.1172 111.094C98.8795 111.131 107.591 110.935 116.25 110.508C116.367 92.2268 116.406 73.9455 116.367 55.6641C108.086 55.6641 99.8046 55.6641 91.5234 55.6641C91.5626 70.6643 91.5234 85.6643 91.4062 100.664C91.1813 102.481 90.2046 103.692 88.4766 104.297C81.5238 104.414 74.5709 104.453 67.6172 104.414C67.5427 106.582 67.6207 108.731 67.8516 110.859C72.9298 110.937 78.0077 111.016 83.0859 111.094C84.6846 112.358 84.6063 113.53 82.8516 114.609C77.6173 114.766 72.3827 114.766 67.1484 114.609C65.4687 114.18 64.414 113.125 63.9844 111.445C63.8672 109.103 63.8283 106.759 63.8672 104.414C61.211 104.414 58.5546 104.414 55.8984 104.414C55.9373 106.759 55.8984 109.103 55.7812 111.445C55.3516 113.125 54.297 114.18 52.6172 114.609C36.1329 114.766 19.6484 114.766 3.16406 114.609C1.62369 114.355 0.529941 113.535 -0.117188 112.148C-0.117188 88.789 -0.117188 65.4298 -0.117188 42.0703C0.502416 40.7892 1.51804 39.9689 2.92969 39.6094C6.60157 39.453 10.2734 39.453 13.9453 39.6094C15.1403 40.0066 15.57 40.827 15.2344 42.0703C15.0505 42.4889 14.7771 42.8405 14.4141 43.125C10.8178 43.1641 7.22402 43.2813 3.63281 43.4766C3.40324 46.2771 3.32512 49.0896 3.39844 51.9141C11.2891 51.9141 19.1797 51.9141 27.0703 51.9141C27.0703 49.0235 27.0703 46.1327 27.0703 43.2422C25.1937 43.2811 23.3187 43.2422 21.4453 43.125C20.2652 42.4188 19.9917 41.4422 20.625 40.1953C20.8995 39.8688 21.251 39.6734 21.6797 39.6094C23.4748 39.4922 25.2717 39.4533 27.0703 39.4922C27.0312 33.7884 27.0703 28.0854 27.1875 22.3828C27.2576 20.516 28.1559 19.2269 29.8828 18.5156C41.823 18.2453 53.7762 18.05 65.7422 17.9297C65.272 12.6266 67.6938 9.65784 73.0078 9.02344C78.3234 9.80473 80.7452 12.8516 80.2734 18.1641C82.8527 18.125 85.4309 18.1641 88.0078 18.2813C89.8697 18.8149 91.0027 20.0259 91.4062 21.9141C91.5234 24.8817 91.5626 27.8505 91.5234 30.8203C95.865 31.6088 98.2087 34.226 98.5547 38.6719C98.5348 38.9313 98.4565 39.1657 98.3203 39.375C104.492 39.453 110.664 39.5313 116.836 39.6094C118.248 39.9689 119.263 40.7892 119.883 42.0703ZM72.5391 12.7734C75.9509 13.2743 77.1616 15.1493 76.1719 18.3984C74.298 20.6903 72.2667 20.8466 70.0781 18.8672C68.6374 15.8921 69.4577 13.8609 72.5391 12.7734ZM31.2891 21.9141C43.4768 21.875 55.6643 21.9141 67.8516 22.0313C71.2134 24.6724 74.573 24.6724 77.9297 22.0313C81.0546 21.875 84.1798 21.875 87.3047 22.0313C87.4219 22.1484 87.5391 22.2656 87.6562 22.3828C87.8515 25.2766 87.8123 28.1672 87.5391 31.0547C86.7202 31.4248 85.939 31.8546 85.1953 32.3438C67.0704 32.4609 48.9455 32.5001 30.8203 32.4609C30.7812 29.1788 30.8203 25.8975 30.9375 22.6172C31.0577 22.3766 31.1749 22.1422 31.2891 21.9141ZM89.4141 34.3359C92.4614 34.2197 94.2584 35.6651 94.8047 38.6719C94.1946 42.0237 92.2416 43.4299 88.9453 42.8906C85.9884 41.4176 85.2462 39.191 86.7188 36.2109C87.457 35.3177 88.3554 34.6929 89.4141 34.3359ZM30.8203 36.2109C48.086 36.1718 65.3517 36.2109 82.6172 36.3281C81.5112 41.108 83.1907 44.5064 87.6562 46.5234C87.8508 64.5016 87.8116 82.4705 87.5391 100.43C68.7115 100.664 49.8834 100.742 31.0547 100.664C30.8648 93.6398 30.7477 86.6086 30.7031 79.5703C30.5859 79.1407 30.3124 78.8672 29.8828 78.75C28.4173 78.3291 27.5189 78.8367 27.1875 80.2734C27.0312 86.9923 27.0312 93.7109 27.1875 100.43C27.4598 102.268 28.4365 103.557 30.1172 104.297C37.4606 104.414 44.8043 104.453 52.1484 104.414C52.223 106.582 52.1449 108.731 51.9141 110.859C35.8198 111.055 19.726 111.016 3.63281 110.742C3.39914 92.3925 3.32102 74.033 3.39844 55.6641C11.2891 55.6641 19.1797 55.6641 27.0703 55.6641C27.0312 61.0552 27.0703 66.4458 27.1875 71.8359C27.3384 72.9244 27.9633 73.5492 29.0625 73.7109C29.7391 73.6165 30.2862 73.3041 30.7031 72.7734C30.8203 60.5862 30.8595 48.3987 30.8203 36.2109ZM97.1484 43.2422C103.478 43.1641 109.807 43.2422 116.133 43.4766C116.362 46.2771 116.441 49.0896 116.367 51.9141C108.086 51.9141 99.8046 51.9141 91.5234 51.9141C91.5234 50.1954 91.5234 48.4765 91.5234 46.7578C93.9239 46.4175 95.7989 45.2456 97.1484 43.2422Z" fill="#C0C1C2"/>
<path opacity="0.912" fill-rule="evenodd" clip-rule="evenodd" d="M101.602 23.0859C102.71 23.1519 103.609 23.6205 104.297 24.4922C105.414 22.9163 106.664 22.7601 108.047 24.0234C108.417 25.327 108.066 26.3817 106.992 27.1875C108.325 28.32 108.481 29.5699 107.461 30.9375C106.197 31.443 105.103 31.1698 104.18 30.1172C103.094 31.4381 101.883 31.5944 100.547 30.5859C99.9443 29.2835 100.218 28.1899 101.367 27.3047C100.197 26.3391 99.9237 25.1672 100.547 23.7891C100.934 23.5784 101.286 23.3439 101.602 23.0859Z" fill="#C0C1C2"/>
<path opacity="0.914" fill-rule="evenodd" clip-rule="evenodd" d="M13.2422 25.4302C14.4887 25.2336 15.5044 25.6243 16.2891 26.6021C16.7147 26.2939 17.1053 25.9423 17.4609 25.5474C19.4802 25.145 20.3787 25.9653 20.1563 28.0084C19.8498 28.5102 19.4982 28.9789 19.1016 29.4146C20.5383 30.643 20.6164 31.932 19.3359 33.2818C18.7109 33.4381 18.0859 33.4381 17.4609 33.2818C17.1053 32.8869 16.7147 32.5353 16.2891 32.2271C15.1237 33.5602 13.8346 33.7166 12.4219 32.6959C11.9531 31.9927 11.9531 31.2896 12.4219 30.5865C12.8168 30.2309 13.1684 29.8402 13.4766 29.4146C12.7653 28.8214 12.2965 28.0794 12.0703 27.188C12.1509 26.3703 12.5415 25.7844 13.2422 25.4302Z" fill="#C0C1C2"/>
<path opacity="0.862" fill-rule="evenodd" clip-rule="evenodd" d="M37.1484 25.4291C38.7382 25.1275 39.6757 25.7525 39.9609 27.3041C39.7151 28.3703 39.0511 28.9951 37.9687 29.1791C36.348 28.8836 35.801 27.9461 36.3281 26.3666C36.4898 25.933 36.7631 25.6204 37.1484 25.4291Z" fill="#C0C1C2"/>
<path opacity="0.86" fill-rule="evenodd" clip-rule="evenodd" d="M42.3047 25.4299C43.1853 25.3294 44.0056 25.4855 44.7656 25.8987C45.559 27.5681 45.0902 28.6617 43.3594 29.1799C41.1814 28.436 40.8298 27.1861 42.3047 25.4299Z" fill="#C0C1C2"/>
<path opacity="0.852" fill-rule="evenodd" clip-rule="evenodd" d="M47.6953 25.4296C50.1691 25.2822 50.9503 26.3368 50.039 28.5936C49.0317 29.387 48.0551 29.3481 47.1094 28.4765C46.5483 27.3109 46.7437 26.2954 47.6953 25.4296Z" fill="#C0C1C2"/>
<path opacity="0.873" fill-rule="evenodd" clip-rule="evenodd" d="M48.8672 62.4616C50.7689 62.1384 51.6672 62.9195 51.5625 64.8053C50.9918 65.9125 50.0932 66.2641 48.8672 65.86C47.9972 65.271 47.7239 64.4507 48.0468 63.3991C48.2086 62.9655 48.4818 62.6528 48.8672 62.4616Z" fill="#C0C1C2"/>
<path opacity="0.878" fill-rule="evenodd" clip-rule="evenodd" d="M67.8515 62.4612C68.7321 62.3606 69.5524 62.5167 70.3125 62.9299C71.1633 65.3339 70.3429 66.3106 67.8515 65.8596C66.6262 64.7292 66.6262 63.5965 67.8515 62.4612Z" fill="#C0C1C2"/>
<path opacity="0.909" fill-rule="evenodd" clip-rule="evenodd" d="M58.0078 68.7884C60.6668 68.5678 62.9716 69.3492 64.9219 71.1321C65.5254 72.7554 64.9786 73.7712 63.2812 74.179C62.5066 74.028 61.8426 73.6765 61.289 73.1243C59.3468 72.2632 57.5498 72.4976 55.8984 73.8274C53.5938 74.3353 52.6952 73.4367 53.2031 71.1321C54.5939 69.87 56.1954 69.0888 58.0078 68.7884Z" fill="#C0C1C2"/>
</g>
<defs>
<clipPath id="clip0_4627_5032">
<rect width="120" height="120" fill="white"/>
</clipPath>
</defs>
</svg>
